<?xml version="1.0" standalone="no"?>
<!DOCTYPE svg PUBLIC "-//W3C//DTD SVG 20010904//EN"
 "http://www.w3.org/TR/2001/REC-SVG-20010904/DTD/svg10.dtd">
<svg version="1.0" xmlns="http://www.w3.org/2000/svg"
 width="700.000000pt" height="700.000000pt" viewBox="0 0 700.000000 700.000000"
 preserveAspectRatio="xMidYMid meet">
<metadata>
Created by potrace 1.11, written by Peter Selinger 2001-2013
</metadata>
<g transform="translate(0.000000,700.000000) scale(0.100000,-0.100000)"
fill="#000000" stroke="none">
<path d="M3299 6996 c-2 -2 -47 -6 -99 -10 -89 -6 -119 -9 -195 -21 -16 -3
-48 -7 -70 -10 -39 -6 -210 -41 -250 -51 -11 -3 -31 -7 -44 -10 -81 -17 -244
-69 -417 -135 -211 -79 -538 -253 -704 -372 -32 -23 -68 -49 -80 -57 -13 -8
-59 -44 -104 -79 -765 -606 -1241 -1490 -1324 -2461 -9 -110 -8 -503 1 -600 9
-81 25 -206 33 -255 3 -16 7 -43 9 -59 3 -15 7 -35 9 -45 3 -9 8 -31 11 -49
21 -127 113 -427 183 -602 49 -123 156 -337 226 -454 36 -60 66 -113 66 -117
0 -4 3 -9 8 -11 4 -2 34 -43 67 -92 171 -256 447 -549 706 -754 84 -66 218
-162 226 -162 4 0 14 -7 24 -16 63 -57 417 -243 614 -323 147 -59 372 -131
456 -146 18 -3 35 -8 39 -10 7 -4 13 -6 135 -29 165 -32 233 -41 385 -53 176
-15 615 -7 713 13 12 2 42 7 67 10 39 5 179 30 275 49 273 53 713 225 980 382
143 84 349 223 400 270 11 10 38 31 59 47 93 70 317 283 404 386 26 30 63 72
83 95 82 92 215 279 307 432 272 449 445 982 490 1508 14 161 7 540 -12 695
-2 19 -7 58 -10 86 -4 28 -8 59 -10 70 -2 10 -11 60 -21 109 -95 508 -320
1015 -639 1438 -37 48 -77 100 -90 115 -13 15 -43 50 -66 77 -78 92 -237 251
-364 362 -64 57 -238 188 -332 251 -459 306 -999 505 -1534 567 -30 4 -68 8
-85 11 -37 5 -521 15 -526 10z m491 -710 c19 -3 55 -8 80 -11 25 -3 56 -7 70
-10 14 -3 50 -9 80 -15 80 -14 113 -20 132 -26 9 -3 26 -7 37 -9 52 -10 267
-81 364 -121 90 -37 294 -137 366 -179 471 -279 847 -684 1086 -1170 124 -251
188 -439 239 -696 45 -226 54 -334 51 -594 -6 -449 -97 -822 -300 -1220 -104
-205 -230 -397 -350 -535 -147 -169 -261 -277 -459 -437 -142 -114 -504 -313
-707 -387 -331 -121 -617 -171 -984 -171 -247 0 -452 22 -614 65 -20 5 -50 11
-67 14 -17 3 -87 24 -157 46 -787 252 -1409 818 -1736 1581 -72 167 -147 416
-166 544 -3 22 -8 47 -11 55 -7 19 -22 134 -32 235 -16 180 -5 532 23 700 68
409 221 792 452 1133 70 102 63 93 166 217 468 565 1177 936 1892 991 44 4 82
8 84 10 6 5 421 -4 461 -10z"/>
<path d="M3355 5049 c-78 -18 -142 -65 -178 -133 l-22 -41 -3 -874 c-2 -766
-1 -881 13 -935 17 -67 52 -126 99 -169 23 -22 750 -466 871 -533 11 -6 153
-91 315 -188 388 -234 380 -230 467 -228 168 5 284 190 215 344 -36 83 -14 67
-497 353 -192 114 -394 235 -449 267 -54 33 -117 70 -140 83 -22 13 -115 68
-206 122 l-165 99 -1 820 c0 899 3 849 -60 931 -48 64 -171 103 -259 82z"/>
</g>
</svg>
